<mxfile host="app.diagrams.net" agent="Mozilla/5.0 (Windows NT 10.0; Win64; x64) AppleWebKit/537.36 (KHTML, like Gecko) Chrome/137.0.0.0 Safari/537.36" version="27.1.6">
  <diagram name="PÃ¡gina-1" id="LOTvq5G6vjr5RWCh9C1M">
    <mxGraphModel grid="1" page="1" gridSize="10" guides="1" tooltips="1" connect="1" arrows="1" fold="1" pageScale="1" pageWidth="827" pageHeight="1169" math="0" shadow="0">
      <root>
        <mxCell id="0" />
        <mxCell id="1" parent="0" />
        <mxCell id="U91s_UH1SOOD9DliHERC-1" value="CU022 Gestionar Contratos" style="swimlane;childLayout=stackLayout;resizeParent=1;resizeParentMax=0;startSize=20;horizontal=0;horizontalStack=1;" vertex="1" parent="1">
          <mxGeometry x="1070" y="650" width="670" height="540" as="geometry">
            <mxRectangle x="200" y="80" width="40" height="50" as="alternateBounds" />
          </mxGeometry>
        </mxCell>
        <mxCell id="U91s_UH1SOOD9DliHERC-2" value="Cliente" style="swimlane;startSize=20;" vertex="1" parent="U91s_UH1SOOD9DliHERC-1">
          <mxGeometry x="20" width="290" height="540" as="geometry" />
        </mxCell>
        <mxCell id="U91s_UH1SOOD9DliHERC-3" value="" style="ellipse;html=1;shape=startState;fillColor=#000000;strokeColor=#ff0000;fillStyle=auto;" vertex="1" parent="U91s_UH1SOOD9DliHERC-2">
          <mxGeometry x="20" y="25" width="30" height="30" as="geometry" />
        </mxCell>
        <mxCell id="U91s_UH1SOOD9DliHERC-4" value="Pulsa el apartado &quot;Contratos&quot;" style="rhombus;whiteSpace=wrap;html=1;fontColor=#000000;fillColor=#ffffc0;strokeColor=#ff0000;" vertex="1" parent="U91s_UH1SOOD9DliHERC-2">
          <mxGeometry x="60" y="80" width="190" height="110" as="geometry" />
        </mxCell>
        <mxCell id="U91s_UH1SOOD9DliHERC-5" value="" style="edgeStyle=orthogonalEdgeStyle;html=1;verticalAlign=bottom;endArrow=open;endSize=8;strokeColor=#ff0000;rounded=0;entryX=0.5;entryY=0;entryDx=0;entryDy=0;" edge="1" parent="U91s_UH1SOOD9DliHERC-2" source="U91s_UH1SOOD9DliHERC-3" target="U91s_UH1SOOD9DliHERC-4">
          <mxGeometry relative="1" as="geometry">
            <mxPoint x="906" y="335" as="targetPoint" />
            <mxPoint x="340" y="320" as="sourcePoint" />
          </mxGeometry>
        </mxCell>
        <mxCell id="U91s_UH1SOOD9DliHERC-6" value="" style="ellipse;html=1;shape=endState;fillColor=#000000;strokeColor=#ff0000;" vertex="1" parent="U91s_UH1SOOD9DliHERC-2">
          <mxGeometry x="140" y="450" width="30" height="30" as="geometry" />
        </mxCell>
        <mxCell id="U91s_UH1SOOD9DliHERC-7" value="no" style="edgeStyle=orthogonalEdgeStyle;html=1;align=left;verticalAlign=top;endArrow=open;endSize=8;strokeColor=#ff0000;rounded=0;exitX=0.5;exitY=1;exitDx=0;exitDy=0;" edge="1" parent="U91s_UH1SOOD9DliHERC-2" source="U91s_UH1SOOD9DliHERC-4" target="U91s_UH1SOOD9DliHERC-6">
          <mxGeometry x="-1" relative="1" as="geometry">
            <mxPoint x="100" y="295.19305019305017" as="targetPoint" />
            <mxPoint x="104" y="230" as="sourcePoint" />
          </mxGeometry>
        </mxCell>
        <mxCell id="U91s_UH1SOOD9DliHERC-8" style="edgeStyle=orthogonalEdgeStyle;rounded=0;orthogonalLoop=1;jettySize=auto;html=1;entryX=0.5;entryY=0;entryDx=0;entryDy=0;strokeColor=light-dark(#ff0000, #ededed);" edge="1" parent="U91s_UH1SOOD9DliHERC-2" source="U91s_UH1SOOD9DliHERC-4" target="U91s_UH1SOOD9DliHERC-6">
          <mxGeometry relative="1" as="geometry" />
        </mxCell>
        <mxCell id="U91s_UH1SOOD9DliHERC-9" style="edgeStyle=orthogonalEdgeStyle;rounded=0;orthogonalLoop=1;jettySize=auto;html=1;exitX=1;exitY=0;exitDx=0;exitDy=0;entryX=0.5;entryY=0;entryDx=0;entryDy=0;strokeColor=light-dark(#ff0000, #ededed);" edge="1" parent="U91s_UH1SOOD9DliHERC-1" source="U91s_UH1SOOD9DliHERC-4" target="U91s_UH1SOOD9DliHERC-12">
          <mxGeometry relative="1" as="geometry">
            <Array as="points">
              <mxPoint x="490" y="107" />
            </Array>
          </mxGeometry>
        </mxCell>
        <mxCell id="U91s_UH1SOOD9DliHERC-10" value="si" style="edgeLabel;html=1;align=center;verticalAlign=middle;resizable=0;points=[];" connectable="0" vertex="1" parent="U91s_UH1SOOD9DliHERC-9">
          <mxGeometry x="-0.8926" y="3" relative="1" as="geometry">
            <mxPoint x="-9" y="-14" as="offset" />
          </mxGeometry>
        </mxCell>
        <mxCell id="U91s_UH1SOOD9DliHERC-11" value="Sistema" style="swimlane;startSize=20;" vertex="1" parent="U91s_UH1SOOD9DliHERC-1">
          <mxGeometry x="310" width="360" height="540" as="geometry" />
        </mxCell>
        <mxCell id="U91s_UH1SOOD9DliHERC-12" value="Mostrar apartado" style="rounded=1;whiteSpace=wrap;html=1;arcSize=40;fontColor=#000000;fillColor=#ffffc0;strokeColor=#ff0000;" vertex="1" parent="U91s_UH1SOOD9DliHERC-11">
          <mxGeometry x="120" y="130" width="120" height="50" as="geometry" />
        </mxCell>
        <mxCell id="U91s_UH1SOOD9DliHERC-13" value="" style="shape=line;html=1;strokeWidth=6;strokeColor=#ff0000;" vertex="1" parent="U91s_UH1SOOD9DliHERC-11">
          <mxGeometry x="70" y="290" width="300" height="10" as="geometry" />
        </mxCell>
        <mxCell id="U91s_UH1SOOD9DliHERC-14" value="" style="edgeStyle=orthogonalEdgeStyle;html=1;verticalAlign=bottom;endArrow=open;endSize=8;strokeColor=#ff0000;rounded=0;entryX=0.47;entryY=-0.037;entryDx=0;entryDy=0;entryPerimeter=0;" edge="1" parent="U91s_UH1SOOD9DliHERC-11" target="U91s_UH1SOOD9DliHERC-15">
          <mxGeometry relative="1" as="geometry">
            <mxPoint x="120" y="330" as="targetPoint" />
            <mxPoint x="88" y="300" as="sourcePoint" />
            <Array as="points">
              <mxPoint x="88" y="300" />
              <mxPoint x="88" y="344" />
            </Array>
          </mxGeometry>
        </mxCell>
        <mxCell id="U91s_UH1SOOD9DliHERC-15" value="Crear cuenta" style="rounded=1;whiteSpace=wrap;html=1;arcSize=40;fontColor=#000000;fillColor=#ffffc0;strokeColor=#ff0000;" vertex="1" parent="U91s_UH1SOOD9DliHERC-11">
          <mxGeometry x="50" y="345" width="80" height="40" as="geometry" />
        </mxCell>
        <mxCell id="U91s_UH1SOOD9DliHERC-16" value="" style="edgeStyle=orthogonalEdgeStyle;html=1;verticalAlign=bottom;endArrow=open;endSize=8;strokeColor=#ff0000;rounded=0;entryX=0.47;entryY=-0.037;entryDx=0;entryDy=0;entryPerimeter=0;" edge="1" parent="U91s_UH1SOOD9DliHERC-11" target="U91s_UH1SOOD9DliHERC-18">
          <mxGeometry relative="1" as="geometry">
            <mxPoint x="210" y="330" as="targetPoint" />
            <mxPoint x="178" y="300" as="sourcePoint" />
            <Array as="points">
              <mxPoint x="178" y="300" />
              <mxPoint x="178" y="344" />
            </Array>
          </mxGeometry>
        </mxCell>
        <mxCell id="U91s_UH1SOOD9DliHERC-17" style="edgeStyle=orthogonalEdgeStyle;rounded=0;orthogonalLoop=1;jettySize=auto;html=1;fontColor=light-dark(#ff0000, #ededed);strokeColor=light-dark(#ff0000, #ededed);" edge="1" parent="U91s_UH1SOOD9DliHERC-11" source="U91s_UH1SOOD9DliHERC-18" target="U91s_UH1SOOD9DliHERC-25">
          <mxGeometry relative="1" as="geometry" />
        </mxCell>
        <mxCell id="U91s_UH1SOOD9DliHERC-18" value="Enviar contrato" style="rounded=1;whiteSpace=wrap;html=1;arcSize=40;fontColor=#000000;fillColor=#ffffc0;strokeColor=#ff0000;" vertex="1" parent="U91s_UH1SOOD9DliHERC-11">
          <mxGeometry x="140" y="345" width="80" height="40" as="geometry" />
        </mxCell>
        <mxCell id="U91s_UH1SOOD9DliHERC-19" value="" style="edgeStyle=orthogonalEdgeStyle;html=1;verticalAlign=bottom;endArrow=open;endSize=8;strokeColor=#ff0000;rounded=0;entryX=0.47;entryY=-0.037;entryDx=0;entryDy=0;entryPerimeter=0;" edge="1" parent="U91s_UH1SOOD9DliHERC-11" target="U91s_UH1SOOD9DliHERC-21">
          <mxGeometry relative="1" as="geometry">
            <mxPoint x="300" y="330" as="targetPoint" />
            <mxPoint x="268" y="300" as="sourcePoint" />
            <Array as="points">
              <mxPoint x="268" y="300" />
              <mxPoint x="268" y="344" />
            </Array>
          </mxGeometry>
        </mxCell>
        <mxCell id="U91s_UH1SOOD9DliHERC-20" style="edgeStyle=orthogonalEdgeStyle;rounded=0;orthogonalLoop=1;jettySize=auto;html=1;strokeColor=light-dark(#ff0000, #ededed);" edge="1" parent="U91s_UH1SOOD9DliHERC-11" source="U91s_UH1SOOD9DliHERC-21" target="U91s_UH1SOOD9DliHERC-25">
          <mxGeometry relative="1" as="geometry" />
        </mxCell>
        <mxCell id="U91s_UH1SOOD9DliHERC-21" value="Descargar contrato PDF" style="rounded=1;whiteSpace=wrap;html=1;arcSize=40;fontColor=#000000;fillColor=#ffffc0;strokeColor=#ff0000;" vertex="1" parent="U91s_UH1SOOD9DliHERC-11">
          <mxGeometry x="230" y="345" width="80" height="40" as="geometry" />
        </mxCell>
        <mxCell id="U91s_UH1SOOD9DliHERC-22" value="" style="edgeStyle=orthogonalEdgeStyle;html=1;verticalAlign=bottom;endArrow=open;endSize=8;strokeColor=#ff0000;rounded=0;entryX=0.47;entryY=-0.037;entryDx=0;entryDy=0;entryPerimeter=0;" edge="1" parent="U91s_UH1SOOD9DliHERC-11" target="U91s_UH1SOOD9DliHERC-24">
          <mxGeometry relative="1" as="geometry">
            <mxPoint x="120" y="330" as="targetPoint" />
            <mxPoint x="88" y="300" as="sourcePoint" />
            <Array as="points">
              <mxPoint x="88" y="300" />
              <mxPoint x="88" y="344" />
            </Array>
          </mxGeometry>
        </mxCell>
        <mxCell id="U91s_UH1SOOD9DliHERC-23" style="edgeStyle=orthogonalEdgeStyle;rounded=0;orthogonalLoop=1;jettySize=auto;html=1;fontColor=light-dark(#ff0000, #ededed);strokeColor=light-dark(#ff0000, #ededed);" edge="1" parent="U91s_UH1SOOD9DliHERC-11" source="U91s_UH1SOOD9DliHERC-24" target="U91s_UH1SOOD9DliHERC-25">
          <mxGeometry relative="1" as="geometry" />
        </mxCell>
        <mxCell id="U91s_UH1SOOD9DliHERC-24" value="Cargar contrato" style="rounded=1;whiteSpace=wrap;html=1;arcSize=40;fontColor=#000000;fillColor=#ffffc0;strokeColor=#ff0000;" vertex="1" parent="U91s_UH1SOOD9DliHERC-11">
          <mxGeometry x="50" y="345" width="80" height="40" as="geometry" />
        </mxCell>
        <mxCell id="U91s_UH1SOOD9DliHERC-25" value="" style="shape=line;html=1;strokeWidth=6;strokeColor=light-dark(#ff0000, #ededed);" vertex="1" parent="U91s_UH1SOOD9DliHERC-11">
          <mxGeometry x="75" y="440" width="210" height="10" as="geometry" />
        </mxCell>
        <mxCell id="U91s_UH1SOOD9DliHERC-26" style="edgeStyle=orthogonalEdgeStyle;rounded=0;orthogonalLoop=1;jettySize=auto;html=1;entryX=1;entryY=0.5;entryDx=0;entryDy=0;strokeColor=light-dark(#ff0000, #ededed);" edge="1" parent="U91s_UH1SOOD9DliHERC-1" source="U91s_UH1SOOD9DliHERC-25" target="U91s_UH1SOOD9DliHERC-6">
          <mxGeometry relative="1" as="geometry">
            <Array as="points">
              <mxPoint x="490" y="465" />
            </Array>
          </mxGeometry>
        </mxCell>
        <mxCell id="U91s_UH1SOOD9DliHERC-27" value="Administrador" style="swimlane;startSize=20;" vertex="1" parent="1">
          <mxGeometry x="1740" y="650" width="136" height="540" as="geometry" />
        </mxCell>
        <mxCell id="U91s_UH1SOOD9DliHERC-28" value="Eliminar Contrato" style="rounded=1;whiteSpace=wrap;html=1;arcSize=40;fontColor=#000000;fillColor=#ffffc0;strokeColor=#ff0000;" vertex="1" parent="U91s_UH1SOOD9DliHERC-27">
          <mxGeometry x="-44" y="345" width="84" height="40" as="geometry" />
        </mxCell>
        <mxCell id="U91s_UH1SOOD9DliHERC-29" value="Mostrar lista de contratos" style="rounded=1;whiteSpace=wrap;html=1;arcSize=40;fontColor=#000000;fillColor=#ffffc0;strokeColor=light-dark(#ff0000, #ededed);" vertex="1" parent="U91s_UH1SOOD9DliHERC-27">
          <mxGeometry x="-64" y="200" width="120" height="40" as="geometry" />
        </mxCell>
        <mxCell id="U91s_UH1SOOD9DliHERC-30" style="edgeStyle=orthogonalEdgeStyle;rounded=0;orthogonalLoop=1;jettySize=auto;html=1;entryX=0.5;entryY=0;entryDx=0;entryDy=0;strokeColor=light-dark(#FF0000,#FF0000);exitX=0.965;exitY=0.728;exitDx=0;exitDy=0;exitPerimeter=0;" edge="1" parent="1" source="U91s_UH1SOOD9DliHERC-13" target="U91s_UH1SOOD9DliHERC-28">
          <mxGeometry relative="1" as="geometry">
            <mxPoint x="1746" y="945" as="sourcePoint" />
            <Array as="points">
              <mxPoint x="1740" y="945" />
              <mxPoint x="1738" y="945" />
            </Array>
          </mxGeometry>
        </mxCell>
        <mxCell id="U91s_UH1SOOD9DliHERC-31" style="edgeStyle=orthogonalEdgeStyle;rounded=0;orthogonalLoop=1;jettySize=auto;html=1;strokeColor=light-dark(#ff0000, #ededed);" edge="1" parent="1" source="U91s_UH1SOOD9DliHERC-28" target="U91s_UH1SOOD9DliHERC-25">
          <mxGeometry relative="1" as="geometry">
            <Array as="points">
              <mxPoint x="1738" y="1065" />
              <mxPoint x="1560" y="1065" />
            </Array>
          </mxGeometry>
        </mxCell>
        <mxCell id="U91s_UH1SOOD9DliHERC-32" style="edgeStyle=orthogonalEdgeStyle;rounded=0;orthogonalLoop=1;jettySize=auto;html=1;entryX=0.5;entryY=0;entryDx=0;entryDy=0;strokeColor=light-dark(#ff0000, #ededed);" edge="1" parent="1" source="U91s_UH1SOOD9DliHERC-12" target="U91s_UH1SOOD9DliHERC-29">
          <mxGeometry relative="1" as="geometry" />
        </mxCell>
        <mxCell id="U91s_UH1SOOD9DliHERC-33" style="edgeStyle=orthogonalEdgeStyle;rounded=0;orthogonalLoop=1;jettySize=auto;html=1;strokeColor=#FF0000;" edge="1" parent="1" source="U91s_UH1SOOD9DliHERC-29" target="U91s_UH1SOOD9DliHERC-13">
          <mxGeometry relative="1" as="geometry" />
        </mxCell>
      </root>
    </mxGraphModel>
  </diagram>
</mxfile>
